<svg width="50" height="50" viewBox="0 0 50 50" fill="none" xmlns="http://www.w3.org/2000/svg">
<path d="M20.2801 40.625C15.3988 40.625 11.4258 36.652 11.4258 31.7707V10.4168H7.78008C4.6196 10.4168 2.05078 12.9852 2.05078 16.1457V44.2707C2.05078 47.4312 4.6196 50 7.78008 50H33.8215C36.982 50 39.5508 47.4312 39.5508 44.2707V40.625H20.2801Z" fill="#30A1A8"/>
<path d="M47.884 5.72929C47.884 2.56462 45.3194 0 42.1551 0H20.2801C17.1154 0 14.5508 2.56462 14.5508 5.72929V31.7707C14.5508 34.9354 17.1154 37.5 20.2801 37.5H42.1551C45.3194 37.5 47.884 34.9354 47.884 31.7707V5.72929Z" fill="#42CAD2"/>
</svg>
